<svg aria-hidden="true" style="position: absolute; width: 0; height: 0; overflow: hidden;" version="1.1" xmlns="http://www.w3.org/2000/svg" xmlns:xlink="http://www.w3.org/1999/xlink">
<defs>
<symbol id="tailwindcssLogo" viewBox="0 0 250 32">
<path fill="#2298bd" style="fill: var(--color1, #2298bd)" d="M25.814 0c-6.884 0-11.186 3.442-12.907 10.326 2.581-3.442 5.593-4.733 9.035-3.872 1.963 0.491 3.367 1.916 4.921 3.493 2.531 2.568 5.46 5.542 11.858 5.542 6.884 0 11.186-3.442 12.907-10.326-2.581 3.442-5.593 4.733-9.035 3.872-1.964-0.491-3.367-1.916-4.921-3.493-2.531-2.568-5.46-5.542-11.858-5.542zM12.907 15.488c-6.883 0-11.186 3.442-12.907 10.326 2.581-3.442 5.593-4.733 9.035-3.872 1.964 0.491 3.368 1.916 4.921 3.492 2.531 2.569 5.46 5.542 11.858 5.542 6.883 0 11.186-3.442 12.907-10.325-2.581 3.442-5.593 4.733-9.035 3.872-1.964-0.491-3.368-1.916-4.921-3.493-2.531-2.568-5.46-5.542-11.858-5.542z"></path>
<path fill="#2d3748" style="fill: var(--color2, #2d3748)" d="M77.438 13.052h-4.505v8.72c0 2.325 1.526 2.289 4.505 2.143v3.524c-6.031 0.727-8.429-0.944-8.429-5.668v-8.719h-3.342v-3.778h3.342v-4.88l3.924-1.162v6.042h4.505v3.778zM94.61 9.274h3.924v18.165h-3.924v-2.616c-1.38 1.926-3.524 3.088-6.357 3.088-4.941 0-9.047-4.178-9.047-9.555 0-5.413 4.105-9.555 9.046-9.555 2.834 0 4.978 1.162 6.358 3.052v-2.58zM88.87 24.169c3.269 0 5.74-2.434 5.74-5.813s-2.471-5.813-5.74-5.813-5.74 2.434-5.74 5.813c0 3.379 2.471 5.813 5.74 5.813zM105.074 6.549c-1.381 0-2.507-1.162-2.507-2.506 0.001-0.664 0.266-1.301 0.736-1.771 0.469-0.47 1.106-0.734 1.771-0.736 0.664 0.001 1.301 0.266 1.771 0.736s0.734 1.107 0.736 1.771c0 1.344-1.127 2.506-2.507 2.506zM103.112 27.439v-18.165h3.923v18.165h-3.923zM111.577 27.439v-26.521h3.923v26.521h-3.923zM140.968 9.274h4.142l-5.704 18.165h-3.851l-3.779-12.243-3.814 12.243h-3.851l-5.704-18.165h4.141l3.525 12.534 3.814-12.534h3.742l3.779 12.534 3.56-12.534zM149.978 6.549c-1.38 0-2.507-1.163-2.507-2.507 0.001-0.664 0.266-1.301 0.736-1.771s1.107-0.734 1.771-0.736c0.664 0.001 1.301 0.266 1.771 0.736s0.735 1.107 0.736 1.771c0 1.344-1.127 2.506-2.507 2.506zM148.016 27.439v-18.165h3.924v18.165l-3.924-0zM166.036 8.801c4.069 0 6.976 2.761 6.976 7.484v11.153h-3.924v-10.753c0-2.761-1.599-4.214-4.069-4.214-2.58 0-4.614 1.525-4.614 5.231v9.736h-3.924v-18.165h3.924v2.325c1.199-1.89 3.16-2.798 5.631-2.798zM191.613 2.008h3.924v25.431h-3.924v-2.616c-1.381 1.926-3.524 3.088-6.358 3.088-4.941 0-9.046-4.178-9.046-9.555 0-5.413 4.105-9.555 9.046-9.555 2.834 0 4.977 1.162 6.358 3.052v-9.846zM185.873 24.169c3.269 0 5.74-2.434 5.74-5.813s-2.471-5.813-5.74-5.813c-3.27 0-5.741 2.434-5.741 5.813s2.471 5.813 5.741 5.813zM208.688 27.912c-5.486 0-9.591-4.178-9.591-9.555 0-5.413 4.105-9.555 9.591-9.555 3.561 0 6.648 1.853 8.102 4.687l-3.379 1.962c-0.799-1.707-2.579-2.798-4.759-2.798-3.197 0-5.631 2.435-5.631 5.704s2.434 5.704 5.631 5.704c2.18 0 3.96-1.126 4.832-2.798l3.379 1.926c-1.527 2.87-4.614 4.723-8.175 4.723zM223.329 14.288c0 3.306 9.773 1.308 9.773 8.029 0 3.633-3.161 5.595-7.084 5.595-3.633 0-6.249-1.635-7.412-4.251l3.379-1.962c0.581 1.635 2.035 2.616 4.033 2.616 1.744 0 3.088-0.581 3.088-2.034 0-3.233-9.773-1.417-9.773-7.92 0-3.416 2.943-5.559 6.648-5.559 2.979 0 5.45 1.38 6.722 3.778l-3.306 1.853c-0.654-1.416-1.926-2.070-3.416-2.070-1.417 0-2.652 0.617-2.652 1.925zM240.078 14.288c0 3.306 9.773 1.308 9.773 8.029 0 3.633-3.161 5.595-7.085 5.595-3.633 0-6.249-1.635-7.411-4.251l3.378-1.962c0.581 1.635 2.035 2.616 4.033 2.616 1.744 0 3.088-0.581 3.088-2.034 0-3.233-9.772-1.417-9.772-7.92 0-3.416 2.942-5.559 6.648-5.559 2.978 0 5.449 1.38 6.721 3.778l-3.306 1.853c-0.654-1.416-1.926-2.070-3.415-2.070-1.417 0-2.652 0.617-2.652 1.925z"></path>
</symbol>
<symbol id="mongodbLogo" viewBox="0 0 32 32">
<path fill="#94795d" style="fill: var(--color3, #94795d)" d="M21.815 25.035c0.042-0.081 0.083-0.153 0.117-0.227 0.022-0.047 0.055-0.057 0.102-0.056 0.283 0.008 0.567 0.017 0.85 0.020 0.241 0.002 0.482-0.002 0.723-0.005 0.271-0.003 0.543-0.017 0.814-0.010 0.361 0.010 0.713 0.081 1.040 0.242 0.39 0.192 0.686 0.485 0.887 0.871 0.127 0.245 0.206 0.511 0.233 0.785 0.043 0.402 0.015 0.795-0.113 1.179-0.158 0.477-0.458 0.841-0.875 1.114-0.321 0.21-0.672 0.334-1.050 0.405-0.399 0.075-0.799 0.051-1.2 0.052-0.439 0.002-0.878-0.008-1.317-0.013-0.077-0.001-0.088-0.015-0.067-0.088l0.019-0.067c0.043-0.135 0.066-0.141 0.202-0.163 0.097-0.015 0.189-0.050 0.272-0.103 0.046-0.030 0.065-0.11 0.083-0.171 0.016-0.053 0.016-0.112 0.017-0.169 0.006-0.856 0.013-1.712 0.016-2.568 0.001-0.216-0.004-0.433-0.016-0.649-0.009-0.151-0.089-0.255-0.269-0.29-0.14-0.028-0.281-0.049-0.422-0.074l-0.047-0.015zM25.834 27.108c-0.019-0.171-0.028-0.343-0.059-0.511-0.073-0.403-0.25-0.755-0.559-1.030-0.501-0.445-1.105-0.513-1.737-0.46-0.144 0.012-0.175 0.061-0.177 0.209-0.003 0.21-0.007 0.42-0.007 0.63-0.001 0.666-0.001 1.332 0 1.998 0 0.19 0.003 0.379 0.008 0.568 0.006 0.194 0.076 0.357 0.266 0.432 0.299 0.118 0.613 0.132 0.927 0.084 0.501-0.077 0.851-0.369 1.086-0.806 0.186-0.347 0.238-0.726 0.254-1.115zM27.051 29.376c-0.006-0.104 0.037-0.189 0.089-0.268 0.014-0.021 0.063-0.020 0.097-0.027l0.287-0.057c0.101-0.021 0.154-0.090 0.169-0.189 0.009-0.066 0.018-0.132 0.019-0.198 0.007-0.524 0.012-1.049 0.015-1.573s0-1.050 0-1.575l-0.002-0.1c-0.010-0.169-0.092-0.256-0.259-0.281l-0.363-0.055c-0.045-0.006-0.061-0.027-0.045-0.067 0.028-0.068 0.055-0.138 0.094-0.199 0.015-0.023 0.064-0.031 0.098-0.030 0.174 0.002 0.347 0.015 0.52 0.015l1.51-0.009c0.291-0 0.572 0.050 0.833 0.19 0.287 0.153 0.448 0.39 0.494 0.712 0.048 0.339-0.055 0.624-0.302 0.851-0.102 0.093-0.233 0.154-0.352 0.23l-0.038 0.024c0.11 0.040 0.214 0.075 0.315 0.116 0.297 0.122 0.533 0.312 0.658 0.616 0.099 0.24 0.099 0.49 0.040 0.738-0.091 0.389-0.347 0.648-0.68 0.843-0.313 0.184-0.651 0.291-1.012 0.309-0.333 0.017-0.666 0.011-1 0.014l-0.193 0.001c-0.321-0.007-0.642-0.015-0.963-0.024l-0.029-0.008zM28.435 27.854h0.003c0 0.165-0.002 0.329 0.001 0.494 0.002 0.107-0.002 0.216 0.021 0.319 0.035 0.153 0.105 0.291 0.276 0.335 0.23 0.060 0.47 0.071 0.704 0.031 0.294-0.051 0.529-0.199 0.658-0.479 0.096-0.208 0.11-0.429 0.077-0.654-0.043-0.297-0.201-0.512-0.463-0.654-0.172-0.093-0.355-0.15-0.551-0.157-0.219-0.008-0.438-0.009-0.657-0.015-0.061-0.002-0.070 0.030-0.070 0.080 0.001 0.233 0 0.467 0 0.701zM28.902 26.735c0.12-0.006 0.255-0.008 0.39-0.021 0.258-0.026 0.44-0.155 0.535-0.402 0.048-0.125 0.046-0.254 0.047-0.384 0.004-0.339-0.194-0.617-0.517-0.732-0.249-0.089-0.505-0.090-0.763-0.083-0.105 0.003-0.151 0.049-0.153 0.154l-0.015 1.372c-0.001 0.055 0.023 0.078 0.076 0.080l0.4 0.018z"></path>
<path fill="#50382b" style="fill: var(--color4, #50382b)" d="M2.636 29.112l-0.018 0.236c-0.17 0-0.327-0.001-0.483 0-0.295 0.003-0.591 0.008-0.886 0.012l-0.028 0.002c-0.042-0.005-0.119-0.005-0.121-0.017-0.012-0.070-0.008-0.144-0.005-0.217 0-0.008 0.029-0.019 0.046-0.023l0.23-0.051c0.143-0.037 0.194-0.099 0.2-0.247 0.008-0.167 0.016-0.334 0.016-0.5 0.002-0.41-0-0.821 0.002-1.231 0-0.096-0.033-0.168-0.123-0.207-0.106-0.047-0.213-0.093-0.321-0.136-0.051-0.021-0.117-0.032-0.111-0.1 0.006-0.070 0.070-0.088 0.131-0.102 0.25-0.057 0.501-0.113 0.751-0.174 0.081-0.020 0.158-0.053 0.254-0.087 0.005 0.052 0.014 0.102 0.013 0.151l-0.015 0.235c-0 0.026 0.014 0.062 0.033 0.077 0.012 0.009 0.052-0.008 0.072-0.023 0.213-0.162 0.44-0.303 0.697-0.384 0.399-0.127 0.742-0.009 0.982 0.335 0.085 0.121 0.085 0.121 0.202 0.037 0.201-0.146 0.412-0.275 0.647-0.36 0.517-0.187 1.014 0.050 1.194 0.571 0.066 0.189 0.090 0.384 0.090 0.584l-0.005 1.325c-0 0.109 0.036 0.172 0.14 0.206 0.117 0.038 0.238 0.064 0.369 0.099l-0.030 0.228c-0.149 0-0.287-0.001-0.425 0-0.336 0.003-0.672 0.005-1.008 0.012-0.058 0.002-0.074-0.013-0.077-0.068-0.010-0.175-0.011-0.175 0.154-0.215l0.056-0.014c0.161-0.044 0.215-0.093 0.216-0.257 0.004-0.47 0.013-0.94-0.010-1.409-0.025-0.486-0.41-0.745-0.881-0.62-0.152 0.042-0.295 0.111-0.423 0.203-0.044 0.031-0.052 0.067-0.048 0.122 0.013 0.207 0.021 0.414 0.023 0.622 0.003 0.363-0.002 0.726 0 1.088 0 0.147 0.051 0.203 0.196 0.237l0.256 0.059c0.003 0.069 0.006 0.138 0.002 0.207-0.002 0.043-0.035 0.047-0.073 0.046-0.21-0.005-0.42-0.012-0.63-0.012-0.255 0-0.51 0.008-0.765 0.012h-0.060c0-0.073-0.003-0.143 0.002-0.213 0.001-0.017 0.031-0.040 0.051-0.046l0.252-0.053c0.107-0.026 0.158-0.081 0.164-0.19 0.029-0.503 0.049-1.005 0.002-1.507-0.012-0.099-0.039-0.196-0.082-0.286-0.129-0.285-0.418-0.403-0.753-0.318-0.159 0.041-0.302 0.113-0.438 0.205-0.029 0.018-0.054 0.044-0.070 0.074s-0.025 0.065-0.024 0.099c0 0.501 0.001 1.003 0.003 1.503l0.003 0.193c0.003 0.135 0.060 0.206 0.194 0.235 0.086 0.020 0.173 0.033 0.271 0.051z"></path>
<path fill="#4f382b" style="fill: var(--color5, #4f382b)" d="M17.75 26.321c0.039 0.189 0.038 0.358-0.101 0.486-0.137 0.128-0.311 0.085-0.481 0.056 0.016 0.090 0.033 0.166 0.042 0.242 0.062 0.572-0.184 0.997-0.715 1.24-0.201 0.091-0.413 0.125-0.63 0.143-0.108 0.009-0.203 0.091-0.213 0.18-0.010 0.090 0.046 0.183 0.159 0.209 0.133 0.032 0.272 0.041 0.409 0.056 0.294 0.034 0.59 0.049 0.88 0.101 0.439 0.079 0.683 0.462 0.606 0.902-0.069 0.392-0.296 0.677-0.612 0.896-0.533 0.369-1.118 0.477-1.741 0.289-0.356-0.108-0.607-0.342-0.694-0.721-0.043-0.19 0.003-0.361 0.145-0.49 0.17-0.152 0.354-0.288 0.532-0.433l0.057-0.058-0.066-0.046c-0.181-0.086-0.326-0.204-0.383-0.408-0.019-0.069 0.001-0.115 0.059-0.15 0.1-0.060 0.199-0.121 0.298-0.184 0.046-0.029 0.092-0.059 0.136-0.093 0.059-0.045 0.054-0.078-0.017-0.105-0.164-0.061-0.31-0.148-0.423-0.283-0.189-0.225-0.242-0.494-0.227-0.777 0.024-0.442 0.264-0.734 0.655-0.921 0.464-0.223 0.93-0.237 1.403-0.034 0.175 0.075 0.36 0.091 0.547 0.078 0.14-0.010 0.263-0.063 0.372-0.178zM16.039 29.491c-0.349-0.003-0.458 0.040-0.662 0.248-0.229 0.233-0.228 0.557 0.001 0.792 0.174 0.178 0.39 0.261 0.631 0.286 0.281 0.029 0.558 0.017 0.814-0.123 0.273-0.151 0.408-0.431 0.347-0.713-0.051-0.233-0.222-0.339-0.431-0.401-0.238-0.070-0.483-0.083-0.699-0.089zM15.355 27.265c0.013 0.097 0.018 0.195 0.040 0.29 0.056 0.245 0.162 0.461 0.407 0.57 0.287 0.129 0.653 0.073 0.778-0.329 0.086-0.268 0.076-0.557-0.028-0.819-0.044-0.12-0.123-0.223-0.227-0.296-0.249-0.174-0.698-0.197-0.881 0.187-0.059 0.125-0.083 0.258-0.088 0.396z"></path>
<path fill="#4f372b" style="fill: var(--color6, #4f372b)" d="M11.838 26.259c0.009 0.043 0.028 0.091 0.028 0.14 0.001 0.093-0.009 0.186-0.014 0.278v0.081l0.079-0.060c0.215-0.177 0.446-0.328 0.715-0.409 0.486-0.146 0.97 0.119 1.129 0.614 0.060 0.188 0.084 0.381 0.086 0.578 0.005 0.437 0.008 0.873 0.012 1.31 0.002 0.157 0.020 0.185 0.168 0.23 0.084 0.025 0.17 0.044 0.258 0.057 0.048 0.008 0.068 0.026 0.066 0.073l0.001 0.043c-0.002 0.181-0.014 0.189-0.19 0.189-0.419-0.001-0.839 0.002-1.258 0.005-0.125 0.001-0.125 0.005-0.138-0.119l-0.002-0.071c0.008-0.107 0.010-0.105 0.115-0.121 0.070-0.011 0.14-0.027 0.209-0.045 0.071-0.018 0.105-0.070 0.114-0.14 0.005-0.035 0.011-0.071 0.011-0.107-0.006-0.477 0.002-0.954-0.024-1.431-0.021-0.385-0.315-0.615-0.702-0.588-0.186 0.013-0.366 0.077-0.518 0.186-0.103 0.072-0.124 0.177-0.123 0.289 0.002 0.446 0.006 0.892 0.011 1.338 0.001 0.098 0.004 0.195 0.013 0.293 0.010 0.106 0.047 0.149 0.151 0.172 0.1 0.022 0.201 0.035 0.307 0.052l0.009 0.082c0.003 0.191-0.017 0.206-0.202 0.205-0.434-0.002-0.867 0.001-1.301 0.006-0.068 0.001-0.097-0.021-0.095-0.087l-0.001-0.029c-0.011-0.172-0.006-0.179 0.157-0.207l0.077-0.015c0.177-0.040 0.222-0.087 0.224-0.266 0.008-0.568 0.011-1.135 0.017-1.703 0.001-0.081-0.030-0.145-0.106-0.178-0.107-0.047-0.214-0.092-0.322-0.136-0.059-0.024-0.127-0.040-0.13-0.122-0.002-0.058 0.060-0.109 0.145-0.127 0.17-0.035 0.342-0.063 0.51-0.105s0.332-0.098 0.515-0.153z"></path>
<path fill="#4f382b" style="fill: var(--color5, #4f382b)" d="M21.216 27.743c-0.008 0.53-0.146 0.959-0.521 1.281-0.475 0.408-1.216 0.547-1.822 0.242-0.258-0.13-0.448-0.33-0.572-0.589-0.19-0.399-0.237-0.818-0.138-1.247 0.098-0.425 0.355-0.733 0.74-0.932 0.396-0.205 0.813-0.285 1.253-0.177 0.556 0.136 0.956 0.589 1.035 1.167 0.014 0.101 0.020 0.204 0.024 0.256zM20.572 28.030l-0.021-0.003c0-0.050 0.003-0.1-0-0.15-0.018-0.311-0.088-0.608-0.269-0.869-0.171-0.247-0.405-0.393-0.708-0.414-0.34-0.024-0.625 0.166-0.726 0.513-0.151 0.521-0.099 1.029 0.165 1.506 0.115 0.208 0.286 0.361 0.515 0.442 0.448 0.158 0.846-0.047 0.962-0.506 0.043-0.169 0.055-0.347 0.082-0.52z"></path>
<path fill="#4f372b" style="fill: var(--color6, #4f372b)" d="M10.205 27.784c-0.009 0.381-0.099 0.732-0.334 1.038-0.252 0.328-0.598 0.503-0.991 0.576-0.465 0.087-0.902 0.008-1.276-0.304-0.178-0.149-0.299-0.339-0.379-0.555-0.131-0.355-0.164-0.719-0.083-1.090 0.086-0.397 0.31-0.7 0.657-0.904 0.401-0.235 0.835-0.339 1.298-0.234 0.595 0.136 0.938 0.524 1.065 1.111 0.025 0.119 0.029 0.241 0.043 0.361zM9.553 28.035l-0.017-0.003v-0.072c-0.010-0.349-0.078-0.681-0.286-0.971-0.154-0.215-0.361-0.35-0.625-0.388-0.431-0.061-0.713 0.195-0.807 0.542-0.122 0.454-0.084 0.903 0.105 1.334 0.118 0.268 0.304 0.478 0.59 0.579 0.445 0.158 0.849-0.051 0.962-0.509 0.041-0.167 0.054-0.342 0.080-0.513z"></path>
<path fill="#439934" style="fill: var(--color7, #439934)" d="M20.591 8.386c0.307 0.887 0.527 1.792 0.6 2.73 0.090 1.164 0.049 2.32-0.197 3.465l-0.032 0.091c-0.077 0-0.155-0.009-0.231 0.002-0.636 0.1-1.271 0.203-1.906 0.306-0.657 0.107-1.314 0.209-1.97 0.322-0.232 0.040-0.52-0.008-0.614 0.313l-0.045 0.015 0.032-1.919-0.032-4.631 0.306-0.053c0.5-0.082 1-0.165 1.502-0.245 0.598-0.095 1.195-0.187 1.794-0.28 0.264-0.040 0.528-0.078 0.792-0.118z"></path>
<path fill="#45a538" style="fill: var(--color8, #45a538)" d="M15.566 21.228c-0.323-0.278-0.657-0.543-0.966-0.835-1.665-1.57-2.882-3.418-3.482-5.646-0.165-0.613-0.275-1.236-0.311-1.87-0.025-0.443-0.061-0.891-0.029-1.332 0.083-1.173 0.253-2.335 0.597-3.466l0.019-0.026c0.034 0.045 0.082 0.084 0.098 0.134 0.336 0.989 0.669 1.979 1.001 2.97 1.042 3.113 2.083 6.226 3.127 9.338 0.021 0.061 0.073 0.11 0.111 0.165l-0.166 0.567z"></path>
<path fill="#46a037" style="fill: var(--color9, #46a037)" d="M20.591 8.386c-0.264 0.039-0.528 0.077-0.792 0.118-0.598 0.092-1.196 0.185-1.794 0.28-0.501 0.079-1.001 0.163-1.502 0.245l-0.306 0.053-0.003-0.2c-0.010-0.164-0.027-0.328-0.029-0.492l-0.034-3.139c-0.008-0.655-0.020-1.309-0.033-1.964-0.007-0.407-0.018-0.813-0.035-1.22-0.010-0.218-0.045-0.435-0.059-0.654-0.008-0.125 0.003-0.252 0.006-0.378 0.156 0.302 0.309 0.607 0.469 0.907 0.253 0.474 0.657 0.824 1.021 1.205 1.436 1.508 2.456 3.26 3.092 5.239z"></path>
<path fill="#409433" style="fill: var(--color10, #409433)" d="M16.198 15.632l0.045-0.015c0.094-0.321 0.381-0.273 0.613-0.313 0.655-0.114 1.313-0.216 1.97-0.322 0.635-0.103 1.27-0.206 1.906-0.306 0.075-0.012 0.154-0.002 0.231-0.002-0.119 0.424-0.212 0.857-0.363 1.27-0.171 0.468-0.378 0.924-0.598 1.372-0.329 0.667-0.736 1.293-1.213 1.864-0.366 0.441-0.775 0.848-1.184 1.25-0.227 0.222-0.493 0.404-0.742 0.604l-0.064-0.044-0.232-0.198-0.24-0.526c-0.164-0.613-0.253-1.244-0.266-1.879l0.005-0.107 0.033-0.463c0.011-0.158 0.025-0.316 0.032-0.474 0.024-0.569 0.046-1.139 0.068-1.708z"></path>
<path fill="#4faa41" style="fill: var(--color11, #4faa41)" d="M16.198 15.632c-0.023 0.569-0.044 1.139-0.068 1.709-0.007 0.159-0.021 0.317-0.032 0.474l-0.146 0.055c-0.325-0.955-0.649-1.901-0.967-2.848-0.525-1.568-1.044-3.138-1.569-4.706-0.424-1.266-0.85-2.53-1.28-3.794-0.020-0.059-0.078-0.106-0.118-0.158l0.935-1.719c0.032 0.056 0.075 0.108 0.095 0.168 0.432 1.28 0.864 2.56 1.292 3.842 0.557 1.668 1.11 3.336 1.667 5.004 0.022 0.066 0.059 0.128 0.094 0.203l0.128-0.149-0.032 1.919z"></path>
<path fill="#4aa73c" style="fill: var(--color12, #4aa73c)" d="M12.019 6.364c0.040 0.052 0.098 0.099 0.118 0.158 0.429 1.264 0.856 2.528 1.28 3.794 0.524 1.568 1.043 3.138 1.569 4.706 0.318 0.947 0.642 1.892 0.967 2.848l0.146-0.055-0.033 0.463-0.030 0.107c-0.051 0.507-0.094 1.015-0.155 1.522-0.031 0.254-0.097 0.503-0.148 0.754-0.038-0.055-0.091-0.105-0.111-0.165-1.044-3.112-2.085-6.226-3.127-9.338-0.332-0.991-0.665-1.981-1.001-2.97-0.017-0.050-0.065-0.090-0.098-0.134l0.625-1.688z"></path>
<path fill="#57ae47" style="fill: var(--color13, #57ae47)" d="M16.23 13.712l-0.128 0.149c-0.035-0.075-0.072-0.136-0.094-0.203-0.556-1.668-1.11-3.336-1.667-5.003-0.429-1.281-0.859-2.562-1.292-3.842-0.020-0.060-0.063-0.112-0.095-0.168l1.156-1.521c0.037 0.049 0.088 0.092 0.107 0.147 0.321 0.94 0.639 1.881 0.956 2.822 0.296 0.88 0.586 1.76 0.886 2.638 0.020 0.059 0.090 0.1 0.136 0.15l0.003 0.2 0.032 4.631z"></path>
<path fill="#60b24f" style="fill: var(--color14, #60b24f)" d="M16.195 8.881c-0.047-0.050-0.116-0.091-0.136-0.15-0.299-0.878-0.59-1.758-0.886-2.638-0.316-0.942-0.635-1.882-0.956-2.822-0.019-0.055-0.071-0.098-0.107-0.147 0.376-0.368 0.74-0.75 1.131-1.101 0.348-0.312 0.627-0.647 0.64-1.14l0.027-0.098 0.099 0.25c-0.002 0.126-0.014 0.252-0.006 0.378 0.014 0.218 0.049 0.435 0.059 0.654 0.018 0.406 0.027 0.813 0.035 1.22 0.013 0.655 0.025 1.309 0.033 1.964l0.034 3.138c0.002 0.164 0.020 0.328 0.030 0.492z"></path>
<path fill="#a9aa88" style="fill: var(--color15, #a9aa88)" d="M15.732 20.66c0.050-0.251 0.117-0.5 0.148-0.754 0.062-0.506 0.105-1.015 0.155-1.522l0.013-0.002 0.012 0.002c0.013 0.635 0.103 1.266 0.266 1.879-0.034 0.044-0.081 0.084-0.099 0.134-0.139 0.392-0.27 0.786-0.409 1.177-0.019 0.053-0.072 0.095-0.11 0.142l-0.143-0.49 0.166-0.567z"></path>
<path fill="#b6b598" style="fill: var(--color16, #b6b598)" d="M15.709 21.718c0.037-0.047 0.091-0.088 0.11-0.142 0.139-0.391 0.271-0.786 0.409-1.177 0.018-0.050 0.065-0.089 0.099-0.134l0.24 0.526c-0.047 0.067-0.113 0.128-0.139 0.203l-0.459 1.348c-0.019 0.054-0.083 0.092-0.127 0.138l-0.133-0.761z"></path>
<path fill="#c2c1a7" style="fill: var(--color17, #c2c1a7)" d="M15.842 22.479c0.043-0.046 0.108-0.084 0.127-0.138l0.459-1.348c0.026-0.075 0.092-0.136 0.139-0.203l0.232 0.198c-0.112 0.111-0.174 0.239-0.137 0.401l-0.071 0.231c-0.032 0.040-0.078 0.074-0.094 0.119-0.16 0.459-0.313 0.921-0.474 1.379-0.020 0.058-0.077 0.104-0.117 0.155l-0.064-0.794z"></path>
<path fill="#cecdb7" style="fill: var(--color18, #cecdb7)" d="M15.905 23.273c0.040-0.052 0.097-0.097 0.117-0.155 0.161-0.459 0.314-0.92 0.474-1.379 0.016-0.045 0.062-0.080 0.094-0.119l-0.097 1.059c-0.026 0.030-0.064 0.056-0.076 0.091l-0.323 0.927c-0.023 0.063-0.066 0.12-0.1 0.179-0.030-0.040-0.084-0.078-0.087-0.119-0.009-0.16-0.003-0.322-0.002-0.483z"></path>
<path fill="#dbdac7" style="fill: var(--color19, #dbdac7)" d="M15.994 23.875c0.034-0.059 0.078-0.116 0.1-0.179l0.323-0.927c0.013-0.035 0.050-0.061 0.076-0.091l0.003 0.695-0.233 0.597-0.27-0.095z"></path>
<path fill="#ebe9dc" style="fill: var(--color20, #ebe9dc)" d="M16.264 23.97l0.233-0.597 0.048 0.706-0.281-0.109z"></path>
<path fill="#cecdb7" style="fill: var(--color18, #cecdb7)" d="M16.662 21.389c-0.037-0.162 0.025-0.29 0.137-0.401l0.064 0.044-0.201 0.357z"></path>
<path fill="#4faa41" style="fill: var(--color11, #4faa41)" d="M16.060 18.386l-0.012-0.002-0.013 0.002 0.029-0.107-0.004 0.107z"></path>
</symbol>
<symbol id="nodejsLogo" viewBox="0 0 53 32">
<path fill="#539e43" style="fill: var(--color21, #539e43)" d="M25.972 31.908c-0.178 0-0.344-0.047-0.498-0.13l-1.577-0.93c-0.237-0.13-0.119-0.177-0.047-0.2 0.32-0.106 0.379-0.13 0.712-0.318 0.036-0.024 0.083-0.012 0.119 0.012l1.21 0.718c0.047 0.024 0.107 0.024 0.142 0l4.732-2.721c0.047-0.024 0.071-0.071 0.071-0.13v-5.43c0-0.059-0.024-0.106-0.071-0.13l-4.732-2.709c-0.047-0.024-0.107-0.024-0.142 0l-4.732 2.709c-0.047 0.024-0.071 0.082-0.071 0.13v5.43c0 0.047 0.024 0.106 0.071 0.13l1.293 0.742c0.7 0.353 1.138-0.059 1.138-0.471v-5.359c0-0.071 0.059-0.141 0.142-0.141h0.605c0.071 0 0.142 0.059 0.142 0.141v5.359c0 0.93-0.51 1.472-1.399 1.472-0.273 0-0.486 0-1.091-0.295l-1.245-0.707c-0.308-0.177-0.498-0.506-0.498-0.86v-5.43c0-0.353 0.19-0.683 0.498-0.86l4.732-2.721c0.297-0.165 0.7-0.165 0.996 0l4.732 2.721c0.308 0.177 0.498 0.506 0.498 0.86v5.43c0 0.353-0.19 0.683-0.498 0.86l-4.732 2.721c-0.154 0.071-0.332 0.106-0.498 0.106zM27.431 28.174c-2.075 0-2.502-0.942-2.502-1.743 0-0.071 0.059-0.141 0.142-0.141h0.617c0.071 0 0.13 0.047 0.13 0.118 0.095 0.624 0.368 0.93 1.625 0.93 0.996 0 1.423-0.224 1.423-0.754 0-0.306-0.119-0.53-1.672-0.683-1.293-0.13-2.099-0.412-2.099-1.437 0-0.954 0.807-1.519 2.158-1.519 1.518 0 2.265 0.518 2.36 1.649 0 0.035-0.012 0.071-0.036 0.106-0.024 0.024-0.059 0.047-0.095 0.047h-0.617c-0.059 0-0.119-0.047-0.13-0.106-0.142-0.648-0.51-0.86-1.482-0.86-1.091 0-1.222 0.377-1.222 0.66 0 0.342 0.154 0.448 1.625 0.636 1.459 0.189 2.147 0.459 2.147 1.472-0.012 1.037-0.866 1.625-2.372 1.625z"></path>
<path fill="#333" style="fill: var(--color22, #333)" d="M11.29 10.671c0-0.212-0.119-0.412-0.308-0.518l-5.028-2.874c-0.083-0.047-0.178-0.071-0.273-0.083h-0.047c-0.095 0-0.19 0.035-0.273 0.083l-5.028 2.874c-0.19 0.106-0.308 0.306-0.308 0.518l0.012 7.727c0 0.106 0.059 0.212 0.154 0.259 0.095 0.059 0.213 0.059 0.297 0l2.989-1.696c0.19-0.106 0.308-0.306 0.308-0.518v-3.616c0-0.212 0.119-0.412 0.308-0.518l1.269-0.73c0.095-0.059 0.202-0.083 0.308-0.083s0.213 0.024 0.297 0.083l1.269 0.73c0.19 0.106 0.308 0.306 0.308 0.518v3.616c0 0.212 0.119 0.412 0.308 0.518l2.989 1.696c0.046 0.029 0.1 0.044 0.154 0.044s0.108-0.015 0.154-0.044c0.095-0.047 0.154-0.153 0.154-0.259l-0.012-7.727zM35.46 0.035c-0.095-0.047-0.213-0.047-0.297 0-0.095 0.059-0.154 0.153-0.154 0.259v7.656c0 0.071-0.036 0.141-0.107 0.188-0.071 0.035-0.142 0.035-0.213 0l-1.257-0.718c-0.092-0.052-0.196-0.079-0.302-0.079s-0.21 0.027-0.302 0.079l-5.028 2.886c-0.19 0.106-0.308 0.306-0.308 0.518v5.76c0 0.212 0.119 0.412 0.308 0.518l5.028 2.886c0.092 0.052 0.196 0.079 0.302 0.079s0.21-0.027 0.302-0.079l5.028-2.886c0.19-0.106 0.308-0.306 0.308-0.518v-14.358c0-0.224-0.119-0.424-0.308-0.53l-3-1.661zM34.997 14.688c0 0.059-0.024 0.106-0.071 0.13l-1.72 0.989c-0.024 0.012-0.050 0.018-0.077 0.018s-0.053-0.006-0.077-0.018l-1.72-0.989c-0.047-0.024-0.071-0.082-0.071-0.13v-1.979c0-0.059 0.024-0.106 0.071-0.13l1.72-0.989c0.024-0.012 0.050-0.018 0.077-0.018s0.053 0.006 0.077 0.018l1.72 0.989c0.048 0.023 0.071 0.082 0.071 0.13v1.979zM52.193 12.662c0.19-0.106 0.297-0.306 0.297-0.518v-1.402c0-0.212-0.118-0.412-0.297-0.518l-4.993-2.874c-0.092-0.052-0.196-0.079-0.302-0.079s-0.21 0.027-0.302 0.079l-5.028 2.886c-0.19 0.106-0.308 0.306-0.308 0.518v5.76c0 0.212 0.119 0.412 0.308 0.518l4.993 2.827c0.19 0.106 0.415 0.106 0.593 0l3.024-1.672c0.095-0.047 0.154-0.153 0.154-0.259s-0.059-0.212-0.154-0.259l-5.052-2.886c-0.095-0.059-0.154-0.153-0.154-0.259v-1.802c0-0.106 0.059-0.212 0.154-0.259l1.577-0.895c0.046-0.029 0.1-0.044 0.154-0.044s0.108 0.015 0.154 0.044l1.577 0.895c0.095 0.059 0.154 0.153 0.154 0.259v1.413c0 0.106 0.059 0.212 0.154 0.259 0.046 0.029 0.1 0.044 0.154 0.044s0.108-0.015 0.154-0.044l2.988-1.732z"></path>
<path fill="#539e43" style="fill: var(--color21, #539e43)" d="M46.821 12.391c0.018-0.012 0.038-0.018 0.059-0.018s0.042 0.006 0.059 0.018l0.961 0.554c0.035 0.024 0.059 0.059 0.059 0.106v1.107c0 0.047-0.024 0.082-0.059 0.106l-0.961 0.554c-0.018 0.012-0.038 0.018-0.059 0.018s-0.042-0.006-0.059-0.018l-0.961-0.554c-0.036-0.024-0.059-0.059-0.059-0.106v-1.107c0-0.047 0.024-0.083 0.059-0.106l0.961-0.554z"></path>
<path fill="#41873f" style="fill: var(--color1, #41873f)" d="M19.699 7.373c-0.092-0.052-0.196-0.079-0.302-0.079s-0.21 0.027-0.302 0.079l-4.993 2.862c-0.19 0.106-0.297 0.306-0.297 0.518v5.736c0 0.212 0.119 0.412 0.297 0.518l4.993 2.862c0.092 0.052 0.196 0.079 0.302 0.079s0.21-0.027 0.302-0.079l4.993-2.862c0.19-0.106 0.297-0.306 0.297-0.518v-5.736c0-0.212-0.119-0.412-0.297-0.518l-4.993-2.862z"></path>
<path fill="#41873f" style="fill: var(--color1, #41873f)" d="M24.703 10.235l-5.017-2.862c-0.049-0.025-0.101-0.044-0.154-0.059l-5.621 9.564c0.047 0.056 0.103 0.104 0.166 0.141l5.016 2.862c0.142 0.082 0.308 0.106 0.462 0.059l5.278-9.588c-0.036-0.047-0.083-0.083-0.131-0.118z"></path>
<path fill="#6cc04a" style="fill: var(--color1, #6cc04a)" d="M24.715 17.008c0.142-0.082 0.249-0.224 0.297-0.377l-5.503-9.329c-0.142-0.024-0.297-0.012-0.427 0.071l-4.981 2.85 5.372 9.729c0.078-0.013 0.154-0.036 0.225-0.071l5.017-2.874z"></path>
<path fill="#6cc04a" style="fill: var(--color1, #6cc04a)" d="M24.715 17.008l-5.005 2.862c-0.071 0.036-0.147 0.060-0.225 0.071l0.095 0.177 5.55-3.192v-0.071l-0.142-0.236c-0.024 0.165-0.13 0.306-0.273 0.389z"></path>
<path fill="#6cc04a" style="fill: var(--color1, #6cc04a)" d="M24.715 17.008l-5.005 2.862c-0.071 0.036-0.147 0.060-0.225 0.071l0.095 0.177 5.55-3.192v-0.071l-0.142-0.236c-0.024 0.165-0.13 0.306-0.273 0.389z"></path>
</symbol>
<symbol id="reactLogo" viewBox="0 0 26 32">
<path fill="#61dafb" style="fill: var(--color23, #61dafb)" d="M13.128 14.154c1.317 0 2.385-1.068 2.385-2.385s-1.068-2.385-2.385-2.385c-1.317 0-2.385 1.068-2.385 2.385s1.068 2.385 2.385 2.385z"></path>
<path fill="#61dafb" style="fill: var(--color23, #61dafb)" d="M13.128 20.538c1.872 1.82 3.718 2.897 5.205 2.897 0.487 0 0.949-0.103 1.333-0.333 1.333-0.769 1.82-2.692 1.359-5.436-0.077-0.487-0.18-0.974-0.308-1.487 0.513-0.154 0.974-0.308 1.436-0.462 2.59-1 4.026-2.385 4.026-3.897 0-1.538-1.436-2.923-4.026-3.897-0.462-0.179-0.923-0.333-1.436-0.462 0.128-0.513 0.231-1 0.308-1.487 0.436-2.795-0.051-4.744-1.385-5.513-0.385-0.231-0.846-0.333-1.333-0.333-1.462 0-3.333 1.077-5.205 2.897-1.846-1.821-3.692-2.897-5.179-2.897-0.487 0-0.949 0.103-1.333 0.333-1.333 0.769-1.821 2.692-1.359 5.436 0.077 0.487 0.179 0.974 0.308 1.487-0.513 0.154-0.974 0.308-1.436 0.462-2.59 1-4.026 2.385-4.026 3.897 0 1.538 1.436 2.923 4.026 3.897 0.462 0.18 0.923 0.333 1.436 0.462-0.128 0.513-0.231 1-0.308 1.487-0.436 2.744 0.051 4.692 1.359 5.436 0.385 0.231 0.846 0.333 1.333 0.333 1.487 0.051 3.333-1.026 5.205-2.82zM11.692 17.077c0.462 0.026 0.949 0.026 1.436 0.026s0.974 0 1.436-0.026c-0.462 0.615-0.949 1.18-1.436 1.718-0.487-0.538-0.974-1.103-1.436-1.718zM8.513 14.436c0.256 0.436 0.487 0.846 0.769 1.256-0.795-0.103-1.538-0.231-2.256-0.385 0.231-0.692 0.487-1.41 0.795-2.128 0.205 0.41 0.436 0.846 0.692 1.256zM7.026 8.256c0.718-0.154 1.462-0.282 2.256-0.385-0.256 0.41-0.513 0.821-0.769 1.256s-0.487 0.846-0.692 1.282c-0.333-0.744-0.59-1.462-0.795-2.154zM8.436 11.769c0.333-0.692 0.692-1.385 1.103-2.077 0.385-0.667 0.82-1.333 1.256-2 0.769-0.051 1.538-0.077 2.333-0.077 0.82 0 1.59 0.026 2.333 0.077 0.462 0.667 0.872 1.333 1.256 2 0.41 0.692 0.769 1.385 1.103 2.077-0.333 0.692-0.692 1.385-1.103 2.077-0.385 0.667-0.82 1.333-1.256 2-0.769 0.051-1.538 0.077-2.333 0.077-0.82 0-1.59-0.026-2.333-0.077-0.462-0.667-0.872-1.333-1.256-2-0.41-0.692-0.769-1.385-1.103-2.077zM18.462 10.385l-0.692-1.282c-0.256-0.436-0.487-0.846-0.769-1.256 0.795 0.103 1.538 0.231 2.256 0.385-0.231 0.718-0.487 1.436-0.795 2.154zM18.462 13.154c0.308 0.718 0.564 1.436 0.795 2.128-0.718 0.154-1.462 0.282-2.256 0.385 0.256-0.41 0.513-0.821 0.769-1.256 0.231-0.385 0.462-0.82 0.692-1.256zM19.051 22.051c-0.205 0.128-0.462 0.18-0.744 0.18-1.256 0-2.82-1.026-4.359-2.564 0.744-0.795 1.462-1.692 2.18-2.692 1.205-0.103 2.359-0.282 3.436-0.538 0.128 0.462 0.205 0.923 0.282 1.385 0.359 2.18 0.077 3.744-0.795 4.231zM20.385 8.538c2.872 0.82 4.59 2.077 4.59 3.231 0 1-1.18 2-3.256 2.795-0.41 0.154-0.872 0.308-1.333 0.436-0.333-1.051-0.744-2.128-1.256-3.231 0.513-1.103 0.949-2.179 1.256-3.231zM18.333 1.308c0.282 0 0.513 0.051 0.744 0.179 0.846 0.487 1.154 2.026 0.795 4.231-0.077 0.436-0.18 0.897-0.282 1.385-1.077-0.231-2.231-0.41-3.436-0.538-0.692-1-1.436-1.897-2.18-2.692 1.538-1.513 3.103-2.564 4.359-2.564zM14.564 6.462c-0.462-0.026-0.949-0.026-1.436-0.026s-0.974 0-1.436 0.026c0.462-0.615 0.949-1.179 1.436-1.718 0.487 0.538 0.974 1.128 1.436 1.718zM7.205 1.487c0.205-0.128 0.462-0.179 0.744-0.179 1.256 0 2.821 1.026 4.359 2.564-0.744 0.795-1.462 1.692-2.18 2.692-1.205 0.103-2.359 0.282-3.436 0.538-0.128-0.462-0.205-0.923-0.282-1.385-0.359-2.179-0.077-3.718 0.795-4.231zM5.872 15c-2.872-0.82-4.59-2.077-4.59-3.231 0-1 1.179-2 3.256-2.795 0.41-0.154 0.872-0.308 1.333-0.436 0.333 1.051 0.744 2.128 1.256 3.231-0.513 1.103-0.949 2.205-1.256 3.231zM6.41 17.82c0.077-0.436 0.179-0.897 0.282-1.385 1.077 0.231 2.231 0.41 3.436 0.538 0.692 1 1.436 1.897 2.179 2.692-1.538 1.513-3.103 2.564-4.359 2.564-0.282 0-0.513-0.051-0.744-0.18-0.872-0.487-1.154-2.051-0.795-4.231zM5.333 28.385c0.564-0.692 0.59-1.462 0.282-2.231s-0.949-1.128-1.744-1.154c-0.949-0.026-1.923 0-2.872 0h-0.179v6.641h0.769v-2.513h1.205c0.154 0 0.282 0.051 0.359 0.18l1.538 2.385c0.026 0.051 0.103 0.128 0.154 0.128h1c-0.615-0.949-1.205-1.846-1.821-2.769 0.538-0.077 1-0.256 1.308-0.667zM1.59 28.333v-2.538h0.282c0.59 0 1.205-0.026 1.795 0.026 0.692 0.026 1.179 0.564 1.179 1.256s-0.564 1.231-1.256 1.256c-0.615 0.026-1.231 0-2 0zM11.513 28.667c-0.41-1.795-2.051-2.256-3.308-1.692-0.974 0.436-1.41 1.282-1.436 2.333-0.026 0.795 0.205 1.513 0.821 2.051 0.692 0.615 1.538 0.692 2.41 0.538 0.487-0.103 0.923-0.333 1.256-0.692-0.128-0.18-0.256-0.359-0.385-0.513-0.718 0.615-1.513 0.82-2.385 0.41-0.564-0.282-0.846-0.974-0.897-1.487h3.974v-0.333c0.026-0.231 0-0.436-0.051-0.615zM7.641 29.077c-0.077-0.769 0.692-1.59 1.538-1.59 0.974-0.026 1.59 0.564 1.615 1.59h-3.154zM15.513 26.846c-0.385-0.077-0.795-0.103-1.179-0.077-0.615 0.051-1.154 0.333-1.59 0.795 0.128 0.18 0.231 0.359 0.385 0.564 0.051-0.051 0.103-0.103 0.154-0.128 0.41-0.385 0.897-0.59 1.487-0.538 0.462 0.026 0.897 0.18 1.026 0.641 0.103 0.359 0.077 0.744 0.103 1.128-0.077 0-0.103-0.026-0.128-0.051-0.615-0.513-1.308-0.615-2.051-0.436-0.692 0.18-1.128 0.718-1.179 1.41-0.051 0.795 0.308 1.385 1 1.667 0.436 0.18 0.923 0.18 1.385 0.077 0.359-0.077 0.513-0.282 1.026-0.564v0.333h0.718c0-1.026 0.026-2.282 0-3.462 0-0.744-0.436-1.205-1.154-1.359zM15.872 30.077c-0.026 0.077 0 0.154 0 0.231 0 0.538-0.128 0.718-0.641 0.923-0.359 0.128-0.744 0.18-1.128 0.051-0.436-0.128-0.744-0.513-0.744-0.949-0.026-0.436 0.256-0.872 0.692-1 0.59-0.205 1.128-0.077 1.615 0.282 0.154 0.128 0.256 0.256 0.205 0.462zM19.872 27.538c0.667-0.205 1.282-0.077 1.744 0.487l0.077 0.051c0.18-0.154 0.333-0.308 0.538-0.487-0.077-0.077-0.103-0.128-0.154-0.205-0.744-0.795-2.205-0.897-3.103-0.256-1.256 0.923-1.231 2.718-0.615 3.667 0.59 0.897 1.436 1.205 2.436 1.077 0.59-0.077 1.077-0.359 1.462-0.846-0.18-0.154-0.359-0.308-0.538-0.487-0.051 0.051-0.077 0.077-0.103 0.128-0.692 0.769-1.846 0.692-2.462-0.128-0.359-0.487-0.436-1.051-0.333-1.615 0.051-0.641 0.385-1.154 1.051-1.385zM25.205 31.026c-0.051 0.026-0.077 0.051-0.077 0.051-0.205 0.154-0.41 0.18-0.641 0.103-0.231-0.103-0.256-0.308-0.282-0.513v-2.923c0-0.051 0 0.051 0.026-0.205h0.974v-0.769h-1.026v-1.282h-0.769v1.385h-0.667c-0.051 0-0.128 0.051-0.128 0.103-0.026 0.18 0 0.308 0 0.564h0.82v3.282c0 0.41 0.103 0.769 0.462 0.974 0.385 0.231 1.128 0.18 1.462-0.103 0.051-0.026 0.077-0.128 0.077-0.154-0.077-0.154-0.154-0.333-0.231-0.513z"></path>
</symbol>
<symbol id="jsLogo" viewBox="0 0 32 32">
<path fill="#f0db4f" style="fill: var(--color24, #f0db4f)" d="M24.5 0h-17c-4.142 0-7.5 3.358-7.5 7.5v17c0 4.142 3.358 7.5 7.5 7.5h17c4.142 0 7.5-3.358 7.5-7.5v-17c0-4.142-3.358-7.5-7.5-7.5z"></path>
<path fill="#323330" style="fill: var(--color25, #323330)" d="M8.414 26.742l2.449-1.482c0.473 0.838 0.902 1.546 1.933 1.546 0.988 0 1.611-0.387 1.611-1.89v-10.225h3.007v10.267c0 3.115-1.826 4.532-4.489 4.532-2.406 0-3.802-1.246-4.511-2.75zM19.048 26.419l2.448-1.418c0.645 1.053 1.482 1.826 2.964 1.826 1.246 0 2.041-0.623 2.041-1.482 0-1.031-0.816-1.396-2.191-1.997l-0.752-0.322c-2.17-0.924-3.609-2.084-3.609-4.532 0-2.256 1.718-3.974 4.404-3.974 1.912 0 3.287 0.666 4.274 2.406l-2.341 1.504c-0.516-0.924-1.074-1.289-1.933-1.289-0.881 0-1.439 0.559-1.439 1.289 0 0.902 0.558 1.267 1.847 1.826l0.752 0.322c2.556 1.096 3.995 2.212 3.995 4.726 0 2.707-2.127 4.189-4.983 4.189-2.792 0-4.597-1.332-5.477-3.072z"></path>
</symbol>
</defs>
</svg>
